<svg xmlns="http://www.w3.org/2000/svg" aria-hidden="true" style="position:absolute;width:0;height:0;overflow:hidden">
  <defs>
  <symbol id="Logo" viewBox="0 0 39 32">
<path d="M22.070 9.734l-0.738-0.577c-0.115-0.096-0.263-0.141-0.411-0.126s-0.284 0.089-0.378 0.206l-10.22 12.013 0.158 0.179 2.531-2.389c-0.084-0.035-0.154-0.099-0.197-0.181s-0.057-0.177-0.039-0.268c0.018-0.091 0.067-0.173 0.138-0.231s0.16-0.089 0.25-0.088c0.082 0 0.162 0.027 0.228 0.077s0.114 0.12 0.139 0.2l3.337-3.168c0.051-0.042 0.115-0.065 0.18-0.065s0.129 0.023 0.18 0.065l0.169 0.127c0.057 0.042 0.128 0.060 0.198 0.052s0.134-0.044 0.18-0.098l4.363-5.008c0.046-0.050 0.082-0.109 0.104-0.174s0.030-0.134 0.024-0.202c-0.006-0.068-0.027-0.135-0.061-0.194s-0.079-0.111-0.134-0.151z"></path>
<path d="M26.872 13.115c-2.237 1.629-4.742 2.831-7.396 3.549-2.634 0.686-5.329 1.096-8.044 1.223 0.055 0.41 0.153 0.812 0.293 1.2 1.533 1.419 13.078-1.004 15.333-3.808 0.479-0.583-0.186-2.164-0.186-2.164zM13.163 19.041c-0.076 0-0.15-0.023-0.213-0.066s-0.112-0.104-0.141-0.176c-0.029-0.072-0.037-0.151-0.022-0.227s0.051-0.146 0.105-0.201c0.054-0.055 0.122-0.092 0.196-0.107s0.151-0.007 0.222 0.022c0.070 0.030 0.13 0.080 0.172 0.145s0.065 0.14 0.065 0.218c0.001 0.052-0.009 0.103-0.028 0.151s-0.047 0.091-0.083 0.128c-0.036 0.037-0.078 0.066-0.125 0.085s-0.097 0.029-0.148 0.028z"></path>
<path d="M2.255 12.284l0.090-0.398 1.466 0.34c0.121 0.229 0.196 0.48 0.22 0.739 0.028 0.274 0.011 0.551-0.051 0.819-0.073 0.372-0.24 0.719-0.485 1.004-0.233 0.27-0.533 0.469-0.868 0.577-0.345 0.109-0.713 0.123-1.065 0.040-0.353-0.078-0.679-0.254-0.941-0.508-0.259-0.244-0.444-0.558-0.536-0.906-0.101-0.378-0.101-0.776 0-1.154 0.061-0.283 0.169-0.552 0.321-0.796 0.144-0.222 0.337-0.406 0.564-0.537l0.203 0.317c-0.194 0.122-0.361 0.285-0.489 0.478s-0.215 0.412-0.255 0.641c-0.070 0.298-0.064 0.61 0.017 0.906 0.076 0.281 0.226 0.534 0.434 0.733 0.214 0.212 0.481 0.358 0.772 0.421 0.282 0.081 0.58 0.081 0.862 0 0.27-0.091 0.513-0.252 0.705-0.467 0.197-0.232 0.333-0.512 0.395-0.814 0.093-0.365 0.069-0.751-0.068-1.102l-1.291-0.335z"></path>
<path d="M5.446 8.655l-1.313 1.794 0.564 1.033-0.259 0.358-2.086-3.895 0.242-0.34 4.245 0.935-0.265 0.358-1.127-0.242zM5.073 8.563l-2.255-0.519 1.127 2.071 1.127-1.552z"></path>
<path d="M5.074 4.933l0.338-0.26 2.148 2.943 1.77-1.356 0.214 0.294-2.103 1.61-2.368-3.231z"></path>
<path d="M8.625 2.527l0.378-0.173 1.488 3.335 2.012-0.935 0.147 0.335-2.39 1.114-1.635-3.675z"></path>
<path d="M16.055 3.854l0.085 0.364-2.717 0.652-0.902-3.935 2.638-0.629 0.079 0.358-2.255 0.537 0.321 1.396 1.984-0.479 0.085 0.358-1.99 0.473 0.338 1.46 2.334-0.554z"></path>
<path d="M19.927 3.999l-0.941-1.269c-0.105 0.006-0.21 0.006-0.316 0l-1.060 0.035 0.040 1.281h-0.417l-0.13-4.039 1.5-0.006c0.424-0.040 0.848 0.077 1.195 0.329 0.146 0.121 0.264 0.274 0.344 0.448s0.12 0.364 0.118 0.556c0.016 0.285-0.057 0.568-0.209 0.808-0.162 0.23-0.391 0.402-0.654 0.49l0.986 1.35-0.457 0.017zM19.533 2.1c0.101-0.095 0.18-0.213 0.23-0.344s0.070-0.272 0.058-0.412c0.003-0.141-0.026-0.281-0.083-0.408s-0.143-0.241-0.249-0.33c-0.26-0.18-0.572-0.264-0.885-0.237l-1.071 0.040 0.068 2.019 1.049-0.035c0.32 0.012 0.633-0.092 0.885-0.294z"></path>
<path d="M22.91 2.925l-0.203 1.379-0.412-0.063 0.209-1.356-1.167-2.885 0.44 0.069 0.998 2.458 1.691-2.037 0.395 0.087-1.95 2.348z"></path>
<path d="M28.485 2.683l0.49 0.652-0.214 0.173-0.49-0.669-0.31 0.756-0.237-0.104 0.316-0.756-0.812 0.11v-0.277l0.8-0.092-0.496-0.652 0.22-0.173 0.434 0.658 0.304-0.762 0.242 0.104-0.288 0.773 0.812-0.115v0.283l-0.772 0.092z"></path>
<path d="M30.368 7.333c-0.133-0.21-0.216-0.449-0.242-0.698l0.333-0.15c0.025 0.229 0.098 0.449 0.214 0.646 0.126 0.221 0.29 0.417 0.485 0.577 0.201 0.197 0.457 0.324 0.733 0.363 0.1 0.009 0.2-0.006 0.292-0.045s0.174-0.101 0.238-0.18c0.047-0.053 0.082-0.115 0.105-0.182s0.031-0.139 0.025-0.21c-0.019-0.141-0.065-0.276-0.135-0.398-0.106-0.177-0.221-0.348-0.344-0.514-0.15-0.201-0.286-0.413-0.406-0.635-0.092-0.166-0.142-0.352-0.147-0.542-0-0.214 0.078-0.42 0.22-0.577 0.123-0.152 0.285-0.266 0.468-0.329 0.204-0.060 0.421-0.060 0.626 0 0.263 0.088 0.507 0.229 0.716 0.415 0.174 0.148 0.327 0.319 0.457 0.508 0.12 0.176 0.209 0.371 0.265 0.577l-0.321 0.173c-0.056-0.192-0.14-0.375-0.248-0.542-0.108-0.149-0.235-0.283-0.378-0.398-0.198-0.196-0.454-0.32-0.727-0.352-0.101-0.009-0.202 0.008-0.294 0.050s-0.174 0.105-0.236 0.187c-0.048 0.052-0.084 0.114-0.107 0.182s-0.030 0.14-0.023 0.211c0.013 0.146 0.060 0.286 0.135 0.41 0.079 0.133 0.192 0.306 0.344 0.514 0.151 0.197 0.287 0.405 0.406 0.623 0.094 0.165 0.146 0.351 0.152 0.542 0 0.214-0.078 0.42-0.22 0.577-0.123 0.154-0.288 0.269-0.474 0.329-0.204 0.063-0.422 0.063-0.626 0-0.265-0.088-0.51-0.229-0.722-0.415-0.228-0.203-0.418-0.445-0.564-0.716z"></path>
<path d="M36.038 8.176l-0.795-1.154 0.293-0.213 1.832 2.677-0.293 0.213-0.795-1.154-2.943 2.106-0.237-0.352 2.937-2.123z"></path>
<path d="M34.776 12.919c0.101-0.349 0.296-0.661 0.564-0.9 0.262-0.24 0.581-0.405 0.925-0.479 0.351-0.082 0.716-0.068 1.060 0.040 0.332 0.112 0.629 0.311 0.862 0.577 0.243 0.286 0.408 0.632 0.479 1.004 0.093 0.365 0.093 0.748 0 1.114-0.103 0.347-0.298 0.659-0.564 0.9-0.269 0.246-0.596 0.417-0.948 0.496s-0.719 0.063-1.064-0.046c-0.334-0.107-0.633-0.307-0.862-0.577-0.242-0.284-0.407-0.629-0.479-0.998-0.086-0.373-0.076-0.763 0.028-1.131zM35.514 14.754c0.188 0.219 0.432 0.381 0.705 0.467 0.281 0.083 0.578 0.093 0.863 0.029s0.551-0.201 0.771-0.398c0.208-0.196 0.362-0.445 0.445-0.721 0.079-0.292 0.086-0.599 0.022-0.895s-0.197-0.571-0.389-0.802c-0.197-0.22-0.448-0.382-0.727-0.467-0.284-0.077-0.584-0.077-0.868 0-0.287 0.056-0.553 0.194-0.767 0.398-0.21 0.197-0.364 0.448-0.445 0.727-0.077 0.293-0.077 0.601 0 0.894 0.062 0.286 0.196 0.551 0.389 0.767z"></path>
<path d="M34.347 19.618l1.46-0.577c0-0.104 0.034-0.208 0.062-0.317l0.276-1.044-1.195-0.317 0.107-0.41 3.811 1.044-0.383 1.46c-0.086 0.426-0.318 0.806-0.654 1.073-0.154 0.11-0.331 0.181-0.517 0.209s-0.375 0.012-0.554-0.048c-0.272-0.060-0.516-0.214-0.691-0.435s-0.272-0.497-0.273-0.782l-1.556 0.577 0.107-0.433zM36.236 19.779c0.066 0.123 0.156 0.23 0.263 0.317s0.231 0.149 0.364 0.186 0.27 0.044 0.406 0.025c0.135-0.020 0.266-0.068 0.382-0.14 0.249-0.205 0.419-0.493 0.479-0.814l0.271-1.039-1.911-0.525-0.271 1.039c-0.104 0.309-0.098 0.647 0.017 0.952z"></path>
<path d="M32.324 23.334l-0.288-0.225 1.691-2.279 3.146 2.441-1.635 2.21-0.288-0.225 1.381-1.864-1.127-0.871-1.234 1.668-0.282-0.219 1.263-1.668-1.167-0.906-1.46 1.939z"></path>
<path d="M31.005 27.932l-0.806 0.046v-0.277l0.806-0.006-0.434-0.687 0.22-0.144 0.428 0.692 0.349-0.773 0.242 0.133-0.383 0.727 0.806-0.046v0.283h-0.817l0.434 0.687-0.22 0.144-0.428-0.692-0.372 0.75-0.237-0.139 0.412-0.698z"></path>
<path d="M23.676 27.471l0.682 0.387c0.114-0.225 0.274-0.422 0.468-0.579s0.419-0.27 0.659-0.332c0.224-0.072 0.46-0.097 0.693-0.075 0.203 0.016 0.398 0.088 0.564 0.208 0.15 0.116 0.261 0.277 0.316 0.462 0.068 0.228 0.056 0.473-0.034 0.692-0.141 0.299-0.332 0.57-0.564 0.802 0.186 0.102 0.358 0.228 0.513 0.375 0.106 0.112 0.186 0.249 0.231 0.398 0.029 0.116 0.031 0.238 0.005 0.355s-0.078 0.227-0.152 0.32c-0.15 0.222-0.375 0.38-0.631 0.444-0.225 0.088-0.474 0.088-0.699 0-0.1-0.044-0.189-0.111-0.259-0.196s-0.121-0.186-0.147-0.294c-0.059-0.19-0.045-0.397 0.039-0.577 0.129-0.262 0.299-0.502 0.502-0.71l-1.359-0.773c-0.052 0.272-0.063 0.55-0.034 0.825h-0.344c-0.023-0.339 0.015-0.679 0.113-1.004l-0.71-0.404 0.147-0.323zM24.657 28.048l1.494 0.848c0.196-0.191 0.358-0.416 0.479-0.664 0.062-0.167 0.062-0.352 0-0.519-0.026-0.1-0.075-0.192-0.144-0.267s-0.155-0.132-0.251-0.165c-0.234-0.081-0.488-0.081-0.722 0-0.191 0.052-0.369 0.146-0.521 0.275s-0.274 0.292-0.358 0.475l0.023 0.017zM26.777 30.356c0.037-0.064 0.060-0.135 0.068-0.208s0-0.148-0.023-0.218c-0.035-0.114-0.097-0.217-0.18-0.3-0.143-0.124-0.3-0.23-0.468-0.317-0.171 0.173-0.32 0.367-0.445 0.577-0.068 0.131-0.084 0.284-0.045 0.427 0.018 0.066 0.049 0.127 0.092 0.18s0.096 0.096 0.156 0.126c0.144 0.055 0.302 0.055 0.445 0 0.153-0.042 0.287-0.138 0.378-0.271l0.023 0.006z"></path>
<path d="M16.804 31.919l0.079-4.039h0.4l-0.062 3.231 1.601-2.689h0.197l1.5 2.735 0.056-3.214h0.4l-0.073 4.039h-0.344l-1.657-3.018-1.753 2.96-0.344-0.006z"></path>
<path d="M14.843 27.696c0.258 0.252 0.442 0.571 0.533 0.924s0.084 0.724-0.020 1.073c-0.093 0.357-0.278 0.682-0.536 0.941-0.251 0.252-0.565 0.428-0.908 0.508-0.361 0.084-0.738 0.072-1.094-0.035-0.355-0.089-0.681-0.27-0.947-0.525-0.254-0.248-0.435-0.564-0.524-0.912-0.087-0.36-0.080-0.736 0.019-1.092s0.287-0.68 0.545-0.939c0.246-0.252 0.554-0.431 0.891-0.519 0.36-0.083 0.734-0.071 1.088 0.035 0.358 0.093 0.687 0.28 0.953 0.542zM12.92 27.494c-0.276 0.066-0.528 0.21-0.727 0.415-0.208 0.212-0.356 0.477-0.428 0.767-0.079 0.289-0.079 0.594 0 0.883 0.066 0.281 0.209 0.537 0.412 0.739 0.212 0.212 0.474 0.365 0.761 0.444 0.287 0.075 0.587 0.075 0.874 0 0.276-0.069 0.529-0.213 0.733-0.415 0.207-0.213 0.354-0.477 0.428-0.767 0.079-0.291 0.079-0.598 0-0.889-0.072-0.28-0.216-0.535-0.417-0.739-0.213-0.213-0.478-0.364-0.767-0.439-0.284-0.080-0.584-0.080-0.868 0z"></path>
<path d="M8.653 24.811l0.152 1.587c0.097 0.042 0.191 0.090 0.282 0.144l0.919 0.542 0.62-1.119 0.366 0.213-1.973 3.479-1.285-0.756c-0.38-0.195-0.68-0.523-0.846-0.923-0.061-0.18-0.082-0.373-0.060-0.563s0.085-0.372 0.184-0.534c0.131-0.253 0.339-0.455 0.592-0.577 0.257-0.109 0.541-0.131 0.812-0.064l-0.164-1.696 0.4 0.265zM8.010 26.634c-0.132 0.034-0.257 0.095-0.366 0.179s-0.2 0.19-0.268 0.311c-0.068 0.121-0.111 0.255-0.127 0.394s-0.005 0.279 0.034 0.414c0.132 0.299 0.361 0.541 0.648 0.687l0.908 0.537 0.986-1.731-0.908-0.537c-0.261-0.2-0.582-0.3-0.908-0.283v0.029z"></path>
<path d="M5.316 22.105l0.254-0.26 1.945 2.048-2.819 2.816-1.877-1.985 0.259-0.26 1.595 1.679 0.964-0.998-1.398-1.489 0.271-0.265 1.426 1.5 1.049-1.044-1.669-1.742z"></path>
<path d="M1.127 19.837l0.135-0.796 0.265 0.040-0.152 0.819 0.75-0.283 0.090 0.254-0.761 0.265 0.626 0.542-0.18 0.208-0.603-0.577-0.141 0.819-0.271-0.052 0.158-0.819-0.755 0.277-0.085-0.225 0.755-0.271-0.626-0.537 0.186-0.208 0.609 0.542z"></path>
</symbol>
    <symbol id="mail" viewBox="0 0 32 32">
      <path fill="none" stroke="#9da4bd" stroke-linecap="round" stroke-linejoin="round" stroke-width="1.333" d="M6.4 6.667h19.2c1.32 0 2.4 1.05 2.4 2.333v14c0 1.283-1.08 2.333-2.4 2.333H6.4C5.08 25.333 4 24.283 4 23V9c0-1.283 1.08-2.333 2.4-2.333z" style="stroke:var(--color1, #9da4bd)"/>
      <path fill="none" stroke="#9da4bd" stroke-linecap="round" stroke-linejoin="round" stroke-width="1.333" d="m26.667 9.333-10.667 8-10.667-8" style="stroke:var(--color1, #9da4bd)"/>
    </symbol>
    <symbol id="map-pin" viewBox="0 0 32 32">
      <path fill="none" stroke="#9da4bd" stroke-linecap="round" stroke-linejoin="round" stroke-width="1.333" d="M26.667 13.818C26.667 21.454 16 28 16 28S5.333 21.455 5.333 13.818C5.333 8.396 10.109 4 16 4s10.667 4.396 10.667 9.818v0z" style="stroke:var(--color1, #9da4bd)"/>
      <path fill="none" stroke="#9da4bd" stroke-linecap="round" stroke-linejoin="round" stroke-width="1.333" d="M16 18.667a4 4 0 1 0 0-8 4 4 0 0 0 0 8z" style="stroke:var(--color1, #9da4bd)"/>
    </symbol>
    <symbol id="phone" viewBox="0 0 32 32">
      <path fill="none" stroke="#9da4bd" stroke-linecap="round" stroke-linejoin="round" stroke-width="1.333" d="M26.666 21.337v3.218a2.146 2.146 0 0 1-2.338 2.145 21.239 21.239 0 0 1-9.257-3.293 20.914 20.914 0 0 1-6.436-6.436 21.221 21.221 0 0 1-3.293-9.3 2.144 2.144 0 0 1 2.134-2.338h3.218a2.144 2.144 0 0 1 2.145 1.845c.136 1.03.388 2.041.751 3.014a2.144 2.144 0 0 1-.483 2.263l-1.362 1.362a17.162 17.162 0 0 0 6.436 6.436l1.362-1.362a2.146 2.146 0 0 1 2.263-.483c.973.363 1.984.615 3.014.751a2.144 2.144 0 0 1 1.845 2.177z" style="stroke:var(--color1, #9da4bd)"/>
    </symbol>
    <symbol id="facebook-1" viewBox="0 0 32 32">
      <path d="M21.329 5.313h2.921V.225C23.746.156 22.013 0 19.994 0c-4.212 0-7.097 2.649-7.097 7.519V12H8.249v5.688h4.648V32h5.699V17.689h4.46l.708-5.688h-5.169V8.082c.001-1.644.444-2.769 2.735-2.769z"/>
    </symbol>
    <symbol id="instagram-2" viewBox="0 0 32 32">
      <path d="M31.969 9.408c-.075-1.7-.35-2.869-.744-3.882a7.803 7.803 0 0 0-1.85-2.838A7.867 7.867 0 0 0 26.543.844C25.524.45 24.361.175 22.661.1 20.948.019 20.404 0 16.06 0s-4.888.019-6.595.094c-1.7.075-2.869.35-3.882.744a7.803 7.803 0 0 0-2.838 1.85A7.867 7.867 0 0 0 .901 5.52C.507 6.539.232 7.702.157 9.402c-.081 1.713-.1 2.257-.1 6.601s.019 4.888.094 6.595c.075 1.7.35 2.869.744 3.882a7.895 7.895 0 0 0 1.85 2.838 7.867 7.867 0 0 0 2.832 1.844c1.019.394 2.182.669 3.882.744 1.706.075 2.25.094 6.595.094s4.888-.019 6.595-.094c1.7-.075 2.869-.35 3.882-.744a8.184 8.184 0 0 0 4.682-4.682c.394-1.019.669-2.182.744-3.882.075-1.707.094-2.251.094-6.595s-.006-4.888-.081-6.595zm-2.882 13.065c-.069 1.563-.331 2.407-.55 2.969a5.31 5.31 0 0 1-3.038 3.038c-.563.219-1.413.481-2.969.55-1.688.075-2.194.094-6.464.094s-4.782-.019-6.464-.094c-1.563-.069-2.407-.331-2.969-.55a4.926 4.926 0 0 1-1.838-1.194 4.974 4.974 0 0 1-1.194-1.838c-.219-.563-.481-1.413-.55-2.969-.075-1.688-.094-2.194-.094-6.464s.019-4.782.094-6.464c.069-1.563.331-2.407.55-2.969a4.868 4.868 0 0 1 1.2-1.838A4.974 4.974 0 0 1 6.639 3.55c.563-.219 1.413-.481 2.969-.55 1.688-.075 2.194-.094 6.464-.094 4.276 0 4.782.019 6.464.094 1.563.069 2.407.331 2.969.55a4.914 4.914 0 0 1 1.838 1.194 4.974 4.974 0 0 1 1.194 1.838c.219.563.481 1.413.55 2.969.075 1.688.094 2.194.094 6.464s-.019 4.77-.094 6.458z"/>
      <path d="M16.059 7.783c-4.538 0-8.22 3.682-8.22 8.22s3.682 8.22 8.22 8.22c4.539 0 8.22-3.682 8.22-8.22s-3.682-8.22-8.22-8.22zm0 13.552a5.333 5.333 0 0 1 0-10.664 5.333 5.333 0 0 1 0 10.664zM26.524 7.458a1.919 1.919 0 1 1-3.838 0 1.919 1.919 0 0 1 3.838 0z"/>
    </symbol>
    <symbol id="linkedin-1" viewBox="0 0 32 32">
      <path d="M31.992 32v-.001H32V20.263c0-5.741-1.236-10.164-7.948-10.164-3.227 0-5.392 1.771-6.276 3.449h-.093v-2.913h-6.364v21.364h6.627V21.42c0-2.785.528-5.479 3.977-5.479 3.399 0 3.449 3.179 3.449 5.657v10.401h6.62zM.528 10.636h6.635V32H.528V10.636zM3.843 0C1.722 0 0 1.721 0 3.843s1.721 3.879 3.843 3.879c2.121 0 3.843-1.757 3.843-3.879A3.846 3.846 0 0 0 3.843 0z"/>
    </symbol>
    <symbol id="twitter-1" viewBox="0 0 32 32">
      <path d="M32 6.078c-1.19.522-2.458.868-3.78 1.036a6.523 6.523 0 0 0 2.886-3.626 13.11 13.11 0 0 1-4.16 1.588A6.574 6.574 0 0 0 22.154 3c-3.632 0-6.556 2.948-6.556 6.562 0 .52.044 1.02.152 1.496-5.454-.266-10.28-2.88-13.522-6.862a6.605 6.605 0 0 0-.898 3.316 6.57 6.57 0 0 0 2.914 5.452 6.479 6.479 0 0 1-2.964-.808v.072c0 3.188 2.274 5.836 5.256 6.446a6.548 6.548 0 0 1-1.72.216 5.8 5.8 0 0 1-1.242-.112c.85 2.598 3.262 4.508 6.13 4.57a13.182 13.182 0 0 1-8.134 2.798c-.538 0-1.054-.024-1.57-.09A18.469 18.469 0 0 0 10.064 29c12.072 0 18.672-10 18.672-18.668 0-.29-.01-.57-.024-.848A13.087 13.087 0 0 0 32 6.078z"/>
    </symbol>
     <symbol id="close-black-18dp-2-1" viewBox="0 0 32 32">
    <path d="M32 3.223l-3.223-3.223-12.777 12.777-12.777-12.777-3.223 3.223 12.777 12.777-12.777 12.777 3.223 3.223 12.777-12.777 12.777 12.777 3.223-3.223-12.777-12.777 12.777-12.777z"></path>
    </symbol>
    <symbol id="Frame-3" viewBox="0 0 32 32">
    <path fill="#fff" style="fill: var(--color1, #fff)" d="M32 2.667l-32 15 10.227 3.156 15.773-12.323-11.998 13.488 0.010 0.003-0.012-0.003v7.345l5.735-5.576 7.265 2.242 5-23.333z"></path>
    </symbol>
    <symbol id="email-black-18dp-1" viewBox="0 0 24 32">
    <path d="M20 8h-16c-1.1 0-1.99 0.9-1.99 2l-0.010 12c0 1.1 0.9 2 2 2h16c1.1 0 2-0.9 2-2v-12c0-1.1-0.9-2-2-2zM19.6 12.25l-7.070 4.42c-0.32 0.2-0.74 0.2-1.060 0l-7.070-4.42c-0.25-0.16-0.4-0.43-0.4-0.72 0-0.67 0.73-1.070 1.3-0.72l6.7 4.19 6.7-4.19c0.57-0.35 1.3 0.050 1.3 0.72 0 0.29-0.15 0.56-0.4 0.72z"></path>
    </symbol>
    <symbol id="person-black-18dp-1" viewBox="0 0 32 32">
    <path d="M16 16c2.947 0 5.333-2.387 5.333-5.333s-2.387-5.333-5.333-5.333c-2.947 0-5.333 2.387-5.333 5.333s2.387 5.333 5.333 5.333zM16 18.667c-3.56 0-10.667 1.787-10.667 5.333v1.333c0 0.733 0.6 1.333 1.333 1.333h18.667c0.733 0 1.333-0.6 1.333-1.333v-1.333c0-3.547-7.107-5.333-10.667-5.333z"></path>
    </symbol>
    <symbol id="phone-black-18dp-1" viewBox="0 0 24 32">
    <path d="M19.635 18.487l-2.451-0.28c-0.589-0.067-1.167 0.135-1.582 0.55l-1.775 1.775c-2.731-1.389-4.969-3.618-6.359-6.359l1.785-1.785c0.415-0.415 0.618-0.994 0.55-1.582l-0.28-2.432c-0.116-0.975-0.936-1.708-1.92-1.708h-1.669c-1.090 0-1.997 0.907-1.93 1.997 0.511 8.24 7.102 14.821 15.332 15.332 1.090 0.068 1.997-0.839 1.997-1.93v-1.669c0.010-0.975-0.724-1.795-1.698-1.911z"></path>
    </symbol>
    <symbol id="Vector" viewBox="0 0 40 32">
    <path fill="#f4f4fd" style="fill: var(--color1, #f4f4fd)" d="M33.782 1.020c0.691-0.662 1.611-1.027 2.565-1.020s1.869 0.387 2.55 1.059c0.681 0.672 1.076 1.584 1.101 2.543s-0.321 1.891-0.966 2.598l-19.578 24.617c-0.337 0.365-0.743 0.657-1.195 0.86s-0.939 0.312-1.434 0.322c-0.495 0.009-0.986-0.082-1.445-0.268s-0.876-0.463-1.226-0.815l-12.984-13.054c-0.362-0.339-0.652-0.747-0.853-1.201s-0.309-0.944-0.318-1.441 0.082-0.99 0.267-1.451c0.185-0.461 0.461-0.879 0.81-1.231s0.766-0.628 1.224-0.814 0.949-0.277 1.443-0.269c0.494 0.009 0.981 0.118 1.433 0.32s0.858 0.494 1.195 0.857l10.275 10.325 17.042-21.83c0.031-0.038 0.063-0.074 0.098-0.109h-0.005z"></path>
    </symbol>
  </defs>
</svg>
